<?xml version="1.0" encoding="utf-8"?>
<!-- Generator: Adobe Illustrator 23.0.1, SVG Export Plug-In . SVG Version: 6.00 Build 0)  -->
<svg version="1.1"
	 id="svg4198" xmlns:cc="http://creativecommons.org/ns#" xmlns:dc="http://purl.org/dc/elements/1.1/" xmlns:rdf="http://www.w3.org/1999/02/22-rdf-syntax-ns#" xmlns:svg="http://www.w3.org/2000/svg"
	 xmlns="http://www.w3.org/2000/svg" xmlns:xlink="http://www.w3.org/1999/xlink" x="0px" y="0px" viewBox="0 0 640 640"
	 style="enable-background:new 0 0 640 640;" xml:space="preserve">
<style type="text/css">
	.st0{clip-path:url(#SVGID_2_);}
	.st1{opacity:0.3;}
	.st2{fill:#231F20;}
	.st3{fill:#272425;}
	.st4{fill:#934C18;}
	.st5{fill:#C76C19;}
	.st6{fill:#808082;}
</style>
<g id="g4206" transform="matrix(1.25,0,0,-1.25,0,640)">
	<g id="g4208">
		<g>
			<defs>
				<rect id="SVGID_1_" x="-64" y="-64" width="640" height="640"/>
			</defs>
			<clipPath id="SVGID_2_">
				<use xlink:href="#SVGID_1_"  style="overflow:visible;"/>
			</clipPath>
			<g id="g4210" class="st0">
				<g id="g4216" transform="translate(254.8198,324.9283)" class="st1">
					<path id="path4218" class="st2" d="M0,0l-189.7-203.1c-10.6-11.3-4.9-29.9,10.2-33.4l204-47.1c7-1.6,14.3,0.6,19.2,5.9
						L225.5-83.1c10.6,11.3,4.9,29.9-10.2,33.4L0,0z"/>
				</g>
				<g id="g4220" transform="translate(268.8204,67.1462)">
					<path id="path4222" class="st3" d="M0,0l27.3-4.7c3.5-0.6,7-0.5,10.5,0.3l2,0.5L24.9,35L0,0z"/>
				</g>
				<g id="g4224" transform="translate(403.75,205.8333)">
					<path id="path4226" class="st3" d="M0,0l24.3-4.4c3.1-0.6,6.2-0.5,9.3,0.3l1.8,0.4L21.6,32.7L0,0z"/>
				</g>
				<g id="g4228" transform="translate(283.8443,71.1198)">
					<path id="path4230" class="st4" d="M0,0c-3.8-4.1-9.4-5.9-14.9-4.7l-117.7,25.4L-236.4,48c-6.9,1.8-11.7,8.1-11.7,15.2v44.3
						c0,4.9,1.4,9.8,4.1,13.9l40,62.9c8.4,13.3,18,25.8,28.5,37.4l81.9,90.5l66.5,58.6c5.9,5.2,13.7,7.5,21.4,6.3l37.5-5.6
						c15.7-2.4,31.2-5.5,46.5-9.6l45.7-12l51.7-24.5c6.2-2.9,10.3-9,10.6-15.9l4.7-90.4l-34-39l-17.3-28.5L0,0z"/>
				</g>
				<g id="g4232" transform="translate(376.7026,374.9453)">
					<path id="path4234" class="st3" d="M0,0l27-68.5c0.4-0.9,0.2-1.9-0.5-2.6l-47.7-52.3c-6.4-7-18.1-1.6-16.9,7.8l11.1,87.9
						c0.6,4.8,2.8,9.2,6.3,12.5L-4.1,0.9C-2.8,2.1-0.7,1.7,0,0"/>
				</g>
				<g id="g4236" transform="translate(383.4201,384.1104)">
					<path id="path4238" class="st3" d="M0,0l28.3-61.5c0.8-1.7,3.1-2,4.3-0.5L56-32.1c6,7.6,5.2,18.6-1.7,25.3l-24.9,24
						c-3.9,3.8-10.1,3.8-14,0L0.5,2.9C-0.2,2.1-0.5,1,0,0"/>
				</g>
				<g id="g4240" transform="translate(324.4084,213.9458)">
					<path id="path4242" class="st5" d="M0,0l18.1,136.9c0.6,4.7,2.8,9,6.1,12.3l56.8,57c0.4,0.4,0.8,0.9,1,1.5l-44.2,11.6
						c-15.3,4-30.9,7.2-46.5,9.6l-37.5,5.6c-7.7,1.2-15.6-1.2-21.4-6.3l-66.5-58.6l-81.9-90.5c-10.5-11.7-20.1-24.2-28.5-37.4
						l-40-62.9c-1.3-2.1-2.3-4.3-3-6.6c2.8-5.8,7.9-10.5,14.6-12.6l23.4-7.2C-205.2-61.6-160-73-114.3-82l36.3-7.1
						c12.6-2.5,25.3,3.1,32.1,14L-0.8-2.2C-0.4-1.5-0.1-0.8,0,0"/>
				</g>
				<g id="g4244" transform="translate(334.1277,345.5676)">
					<path id="path4246" class="st3" d="M0,0l-15.5-111.9c-0.8-5.8-6.3-9.7-12.1-8.6l-75.7,13.8c-20.2,3.7-40.3,8.2-60.2,13.5
						l-62.2,16.6c-5.2,1.3-7.1,7.6-3.6,11.5l83.7,94.1c2.6,3,6.6,4.3,10.5,3.5L-4.3,6.1C-1.5,5.5,0.4,2.9,0,0"/>
				</g>
				<g id="g4248" transform="translate(469.0438,260.4167)">
					<path id="path4250" class="st3" d="M0,0c-5.4-32.3-19.6-58.3-31.8-58.4C-43.6-58.5-49.4-32.3-44,0
						c5.4,32.3,19.6,58.4,31.8,58.4C-0.1,58.4,5.4,32.3,0,0"/>
				</g>
				<g id="g4252" transform="translate(465.451,258.9519)">
					<path id="path4254" class="st6" d="M0,0c-3.6-21.7-13.2-39.2-21.4-39.2c-8.2,0-11.8,17.6-8.2,39.2
						c3.6,21.7,13.2,39.2,21.4,39.2S3.6,21.7,0,0"/>
				</g>
				<g id="g4256" transform="translate(343.4625,125.653)">
					<path id="path4258" class="st3" d="M0,0c-6.7-34.6-23.2-62.5-37-62.6c-13.3-0.1-19.4,28-12.7,62.6c6.7,34.6,23.2,62.6,37,62.6
						S6.7,34.6,0,0"/>
				</g>
				<g id="g4260" transform="translate(339.3841,124.083)">
					<path id="path4262" class="st6" d="M0,0c-4.5-23.2-15.6-42-24.8-42s-13,18.8-8.5,42s15.6,42,24.8,42C0.7,42,4.5,23.2,0,0"/>
				</g>
			</g>
		</g>
	</g>
</g>
</svg>
