<svg id="Layer_1" data-name="Layer 1" xmlns="http://www.w3.org/2000/svg" xmlns:xlink="http://www.w3.org/1999/xlink" viewBox="0 0 201.25 158.6"><defs><style>.cls-1,.cls-5{fill:none;stroke:#4d4d4d;stroke-miterlimit:10;}.cls-1{stroke-width:3px;}.cls-2{font-size:35px;fill:#4d4d4d;letter-spacing:0.03em;}.cls-2,.cls-3,.cls-5{font-family:AvantGarde-Medium, ITC Avant Garde Gothic;font-weight:500;}.cls-3,.cls-5{font-size:130px;letter-spacing:0.01em;}.cls-4{fill:url(#linear-gradient);}</style><linearGradient id="linear-gradient" x1="37.14" y1="65.5" x2="174.03" y2="65.5" gradientUnits="userSpaceOnUse"><stop offset="0.75" stop-color="#d9814f" stop-opacity="0.95"/><stop offset="1" stop-color="#c86d1b" stop-opacity="0.95"/></linearGradient><symbol id="Logo" data-name="Logo" viewBox="0 0 201.25 158.6"><polyline class="cls-1" points="118.56 15.25 118.56 51.25 109.56 51.25 82.56 86.25"/><polyline class="cls-1" points="1.06 87.75 33.06 55.75 55.56 78.25 118.56 15.25 190.56 87.25"/><text class="cls-2" transform="translate(0.77 149.61) scale(0.97 1)">Car Rentals</text><text class="cls-3" transform="translate(27.65 113.6)">US</text><path class="cls-4" d="M101.63,82.53c0,10.92-3.64,18.85-9.75,24.7a35,35,0,0,1-45,0c-6.11-5.85-9.75-13.78-9.75-24.7V17.4h14V82.14c0,17.81,13,20.41,18.21,20.41s18.2-2.6,18.2-20.41V17.4h14Z"/><path class="cls-4" d="M128.92,85.13c0,3.25,1.43,17.42,15.6,17.42,8.84,0,15.47-6.11,15.47-16.25,0-10.79-8.84-13.13-15.47-15.73-12.87-4.94-16-6.5-20.41-10.79s-6.5-11.31-6.5-18.07c0-11.18,8.71-26.13,26.91-26.13,16,0,27.57,10.53,27.57,26.78H158c0-10.66-7.8-13.91-13.52-13.91-8.32,0-12.87,7.54-12.87,13.13,0,9.23,8.71,11.7,12.87,13.26C156.61,59.39,174,63.16,174,86.3c0,16.77-11.83,29.12-29.51,29.12-13.26,0-29.64-8.84-29.64-30.29Z"/><text class="cls-5" transform="translate(27.65 113.6)">US</text></symbol></defs><title>Logo</title><use width="201.25" height="158.6" xlink:href="#Logo"/></svg>